<?xml version="1.0" standalone="no"?>
<!DOCTYPE svg PUBLIC "-//W3C//DTD SVG 20010904//EN"
 "http://www.w3.org/TR/2001/REC-SVG-20010904/DTD/svg10.dtd">
<svg version="1.0" xmlns="http://www.w3.org/2000/svg"
 width="176.000000pt" height="176.000000pt" viewBox="0 0 176.000000 176.000000"
 preserveAspectRatio="xMidYMid meet">

<g transform="translate(0.000000,176.000000) scale(0.100000,-0.100000)"
fill="#000000" stroke="none">
<path d="M456 1537 c-18 -74 61 -166 146 -168 l33 -1 -30 -9 c-16 -5 -42 -7
-57 -3 -62 13 -236 -113 -295 -214 -53 -90 -88 -222 -76 -285 5 -24 8 -21 35
34 17 33 32 59 34 57 2 -2 -6 -32 -16 -66 -27 -85 -34 -175 -21 -247 12 -66
60 -172 90 -199 18 -17 19 -16 14 48 -7 76 1 85 18 24 41 -155 172 -281 316
-304 l43 -7 -35 37 c-41 44 -46 66 -9 37 36 -28 144 -61 224 -68 75 -6 170 10
201 36 22 18 22 18 -27 31 -68 19 -144 96 -169 169 -30 92 -10 196 52 262 l24
26 -59 5 c-106 10 -208 82 -251 178 -32 70 -25 83 8 15 48 -103 130 -156 252
-163 56 -3 91 0 129 13 70 23 175 17 222 -14 79 -50 116 -62 156 -52 43 12 75
42 92 85 10 28 6 80 -9 101 -4 6 -13 29 -20 52 -6 23 -16 45 -21 48 -11 7 -25
-59 -16 -80 3 -8 2 -15 -3 -15 -5 0 -12 15 -15 34 -4 19 -15 45 -25 57 l-18
23 -7 -45 c-11 -72 -14 -74 -90 -55 -36 9 -78 16 -93 17 -15 0 -23 3 -16 5 7
3 2 14 -13 29 -13 13 -24 34 -24 47 1 37 35 102 69 131 43 36 14 37 -49 2
l-45 -25 32 29 c44 41 103 55 178 45 l60 -9 3 -47 c2 -27 5 -48 8 -48 17 0 46
25 60 52 12 24 18 28 25 17 5 -8 6 -27 3 -42 -11 -54 33 -12 71 66 48 99 47
134 -6 176 -48 39 -45 52 5 21 29 -18 36 -19 36 -6 0 41 -128 103 -240 116
-44 5 -116 21 -161 35 -97 31 -156 31 -262 4 -111 -29 -215 -27 -342 5 -55 15
-103 26 -106 26 -4 0 -9 -11 -13 -23z m652 -63 c41 -27 25 -46 -31 -37 -32 5
-36 8 -34 34 2 24 6 28 22 23 11 -3 30 -12 43 -20z m60 -45 c-7 -5 -19 -9 -27
-9 -11 0 -11 3 -1 14 6 8 18 12 27 9 12 -5 12 -7 1 -14z m-33 -487 c-6 -7 -45
19 -45 29 0 5 11 2 24 -8 13 -10 23 -19 21 -21z"/>
</g>
</svg>
